<svg width="17" height="24" viewBox="0 0 17 24" fill="none" xmlns="http://www.w3.org/2000/svg">
<path d="M15.8015 0H0.703125C0.314812 0 0 0.314812 0 0.703125V3.29236C0 3.41212 0.0306095 3.52988 0.0888752 3.63455L4.80525 12.1013C3.00197 13.2461 1.80258 15.2607 1.80258 17.5502C1.80258 21.1066 4.69594 24 8.2523 24C11.8087 24 14.7021 21.1066 14.7021 17.5503C14.7021 15.2607 13.5027 13.2462 11.6994 12.1013L16.4158 3.63455C16.474 3.52992 16.5046 3.41217 16.5046 3.29241V0.703125C16.5046 0.314812 16.1898 0 15.8015 0V0ZM8.2523 11.1005C7.73644 11.1005 7.23469 11.1618 6.75356 11.2767V1.40625H9.7515V11.2768C9.27019 11.1618 8.7683 11.1005 8.2523 11.1005ZM1.40625 1.40625H5.34731V10.1847L1.40625 3.10973V1.40625ZM13.2958 17.5503C13.2958 20.3312 11.0333 22.5938 8.2523 22.5938C5.4713 22.5938 3.20883 20.3312 3.20883 17.5503C3.20883 14.7693 5.47134 12.5068 8.2523 12.5068C11.0333 12.5068 13.2958 14.7693 13.2958 17.5503ZM15.0983 3.10973L11.1578 10.1839V1.40625H15.0983V3.10973Z" fill="#0D2662"/>
</svg>
