<svg width="287" height="177" viewBox="0 0 287 177" fill="none" xmlns="http://www.w3.org/2000/svg">
<path d="M0 0H287V169C287 173.418 283.418 177 279 177H8.00001C3.58173 177 0 173.418 0 169V0Z" fill="#3857A3"/>
<g clip-path="url(#clip0)">
<path d="M172.759 89.9355L112.111 53L102.882 68.0154C105.375 69.627 107.137 72.1433 107.794 75.0287C108.451 77.9141 107.951 80.9407 106.399 83.4644C104.848 85.9881 102.369 87.8096 99.4889 88.541C96.6089 89.2725 93.5559 88.8562 90.9797 87.3808L87.9848 92.2534H113.549V123.067L175.835 161L188.871 139.791H172.759V89.9355Z" fill="#F2F2F2"/>
<path d="M142.927 135.61C148.993 135.61 153.91 134.853 153.91 133.92C153.91 132.987 148.993 132.23 142.927 132.23C136.861 132.23 131.943 132.987 131.943 133.92C131.943 134.853 136.861 135.61 142.927 135.61Z" fill="#5DEEA0"/>
<path d="M143.282 118.953L154.349 106.351C155.158 105.527 155.797 104.553 156.228 103.483C156.659 102.414 156.875 101.27 156.862 100.118C156.849 98.9652 156.609 97.8266 156.154 96.7668C155.699 95.707 155.039 94.7467 154.211 93.9409C153.384 93.135 152.405 92.4993 151.33 92.07C150.256 91.6407 149.107 91.4263 147.949 91.439C146.792 91.4517 145.648 91.6913 144.583 92.144C143.518 92.5967 142.554 93.2537 141.744 94.0776C140.917 93.2717 139.938 92.636 138.863 92.2067C137.789 91.7774 136.64 91.563 135.482 91.5757C134.324 91.5884 133.181 91.828 132.116 92.2807C131.051 92.7334 130.086 93.3905 129.277 94.2143C128.467 95.0382 127.829 96.0126 127.397 97.0822C126.966 98.1517 126.751 99.2953 126.764 100.448C126.776 101.6 127.017 102.739 127.472 103.798C127.927 104.858 128.587 105.819 129.414 106.624L141.726 118.953" fill="#5DEEA0"/>
<path d="M113.896 92.0815H54.174V145.986H113.896V92.0815Z" stroke="white" stroke-width="2" stroke-miterlimit="10"/>
<path d="M232.827 85.7148H173.105V139.619H232.827V85.7148Z" stroke="white" stroke-width="2" stroke-miterlimit="10"/>
<path d="M97.1268 85.2261C101.232 85.2261 104.56 81.9134 104.56 77.8269C104.56 73.7405 101.232 70.4277 97.1268 70.4277C93.0215 70.4277 89.6935 73.7405 89.6935 77.8269C89.6935 81.9134 93.0215 85.2261 97.1268 85.2261Z" fill="#5DEEA0"/>
<path d="M114.759 118.092C114.759 118.092 124.094 114.823 128.07 119.296C132.046 123.77 143.109 116.715 143.109 116.715" stroke="white" stroke-width="2" stroke-miterlimit="10"/>
<path d="M190.648 119.296C190.648 119.296 188.919 115.167 177.164 118.952C165.409 122.738 148.814 122.566 144.665 116.715L155.732 104.114C156.541 103.29 157.18 102.315 157.611 101.246C158.042 100.176 158.258 99.0327 158.245 97.8803C158.232 96.7279 157.992 95.5893 157.537 94.5295C157.082 93.4697 156.422 92.5094 155.594 91.7036C154.767 90.8977 153.788 90.2619 152.713 89.8327C151.639 89.4034 150.49 89.189 149.332 89.2017C148.175 89.2144 147.031 89.454 145.966 89.9067C144.901 90.3594 143.937 91.0164 143.127 91.8403C141.456 90.2127 139.203 89.3128 136.865 89.3384C134.527 89.3641 132.295 90.3132 130.66 91.977C129.025 93.6408 128.121 95.883 128.146 98.2104C128.172 100.538 129.126 102.76 130.797 104.387L143.109 116.715" stroke="white" stroke-width="2" stroke-miterlimit="10"/>
<path d="M144.329 134.206C150.395 134.206 155.312 133.449 155.312 132.516C155.312 131.582 150.395 130.826 144.329 130.826C138.263 130.826 133.346 131.582 133.346 132.516C133.346 133.449 138.263 134.206 144.329 134.206Z" stroke="white" stroke-width="2" stroke-miterlimit="10"/>
<path d="M143.161 145.735C147.936 145.735 151.807 145.139 151.807 144.405C151.807 143.67 147.936 143.074 143.161 143.074C138.385 143.074 134.514 143.67 134.514 144.405C134.514 145.139 138.385 145.735 143.161 145.735Z" fill="#5DEEA0"/>
<path d="M143.161 155.432C146.387 155.432 149.003 155.03 149.003 154.533C149.003 154.037 146.387 153.634 143.161 153.634C139.934 153.634 137.318 154.037 137.318 154.533C137.318 155.03 139.934 155.432 143.161 155.432Z" fill="#5DEEA0"/>
<path d="M144.329 144.55C149.104 144.55 152.976 143.954 152.976 143.219C152.976 142.484 149.104 141.889 144.329 141.889C139.554 141.889 135.682 142.484 135.682 143.219C135.682 143.954 139.554 144.55 144.329 144.55Z" stroke="white" stroke-width="2" stroke-miterlimit="10"/>
<path d="M144.329 154.54C147.556 154.54 150.171 154.138 150.171 153.641C150.171 153.145 147.556 152.742 144.329 152.742C141.102 152.742 138.487 153.145 138.487 153.641C138.487 154.138 141.102 154.54 144.329 154.54Z" stroke="white" stroke-width="2" stroke-miterlimit="10"/>
<path d="M89.0225 120.236C92.1971 120.236 94.7707 117.674 94.7707 114.514C94.7707 111.354 92.1971 108.792 89.0225 108.792C85.8479 108.792 83.2743 111.354 83.2743 114.514C83.2743 117.674 85.8479 120.236 89.0225 120.236Z" fill="#2F2E41"/>
<path d="M86.2785 117.405C86.2785 117.405 84.4063 121.532 83.8713 121.665C83.3364 121.798 88.2846 124.194 88.2846 124.194C88.2846 124.194 89.2207 119.135 89.6219 118.869C90.0231 118.603 86.2785 117.405 86.2785 117.405Z" fill="#9F616A"/>
<path d="M89.087 120.466C91.2289 120.466 92.9653 118.738 92.9653 116.606C92.9653 114.474 91.2289 112.745 89.087 112.745C86.945 112.745 85.2086 114.474 85.2086 116.606C85.2086 118.738 86.945 120.466 89.087 120.466Z" fill="#9F616A"/>
<path d="M92.3349 145.986H75.8434C76.3949 143.991 76.9843 142.014 77.3162 140.916C77.4839 140.366 77.5859 140.035 77.5859 140.035C77.5859 140.035 90.0237 142.697 90.2899 142.831C90.4396 142.99 90.5723 143.165 90.6858 143.351C91.0747 143.919 91.6953 144.895 92.3349 145.986Z" fill="#2F2E41"/>
<path d="M71.8352 108.352L67.8231 102.229C67.8231 102.229 68.8153 95.8048 67.4779 97.0029C66.1406 98.201 65.7173 103.039 65.7173 103.039L70.3641 110.083L71.8352 108.352Z" fill="#9F616A"/>
<path d="M108.211 119.534L111.822 119.268C111.822 119.268 116.101 114.742 116.369 116.206C116.636 117.671 112.892 120.865 112.892 120.865L107.944 121.398L108.211 119.534Z" fill="#9F616A"/>
<path d="M81.8653 120.865V119.534C81.8653 119.534 78.3881 117.271 78.5219 116.872C78.6556 116.472 78.2544 116.206 78.2544 116.206C78.2544 116.206 77.8532 115.674 77.8532 115.54C77.8532 115.407 77.3183 115.274 77.3183 115.274L73.9749 111.414C73.9749 111.414 72.1026 107.686 71.7014 107.819C71.3002 107.953 69.1604 108.751 69.4279 109.284C69.6954 109.816 77.1845 121.265 77.1845 121.265C77.1845 121.265 77.5857 123.794 78.2544 123.794C78.9231 123.794 81.8653 120.865 81.8653 120.865Z" fill="white"/>
<path d="M90.8255 122.463C90.8255 122.463 93.7677 122.33 93.9014 122.463C94.0352 122.596 95.9075 122.463 95.9075 122.463C95.9075 122.463 100.989 121.265 101.391 120.865C101.792 120.466 108.479 118.735 108.746 119.534C109.013 120.333 109.682 121.93 109.013 122.197C108.345 122.463 90.2906 126.989 90.2906 126.989L90.8255 122.463Z" fill="white"/>
<path d="M87.0117 110.859C88.3254 110.859 89.3903 109.799 89.3903 108.492C89.3903 107.184 88.3254 106.124 87.0117 106.124C85.6981 106.124 84.6331 107.184 84.6331 108.492C84.6331 109.799 85.6981 110.859 87.0117 110.859Z" fill="#2F2E41"/>
<path d="M83.8403 107.209C83.8403 106.624 84.0581 106.059 84.4516 105.624C84.845 105.19 85.3864 104.915 85.9711 104.854C85.8888 104.846 85.8061 104.841 85.7233 104.841C85.0925 104.841 84.4875 105.091 84.0414 105.535C83.5954 105.979 83.3448 106.581 83.3448 107.209C83.3448 107.837 83.5954 108.439 84.0414 108.883C84.4875 109.327 85.0925 109.577 85.7233 109.577C85.8061 109.577 85.8888 109.572 85.9711 109.564C85.3864 109.503 84.845 109.228 84.4516 108.794C84.0581 108.359 83.8403 107.794 83.8403 107.209Z" fill="#2F2E41"/>
<path d="M89.6912 115.668C91.8806 115.668 93.6555 114.608 93.6555 113.301C93.6555 111.993 91.8806 110.933 89.6912 110.933C87.5018 110.933 85.7269 111.993 85.7269 113.301C85.7269 114.608 87.5018 115.668 89.6912 115.668Z" fill="#2F2E41"/>
<path d="M85.1418 119.468C85.1418 119.468 83.9382 120.399 83.6707 120.533C83.4032 120.666 81.7984 119.334 81.5309 119.334C81.2635 119.334 77.7863 123.328 77.7863 123.328C77.7863 123.328 78.4325 124.069 77.7863 127.854C77.544 129.274 77.0632 135.343 77.0632 136.142C77.0632 136.941 74.443 138.903 76.8502 140.634C79.2574 142.365 90.7587 144.228 90.8924 143.163C91.0261 142.098 89.555 139.303 90.2237 137.972C90.8924 136.64 90.8924 131.715 90.8924 131.715L91.6948 126.523L92.3635 122.396C92.3635 122.396 89.2207 121.531 88.9532 121.531C88.6858 121.531 87.4821 123.395 85.1418 119.468Z" fill="white"/>
<path d="M205.654 106.753L202.917 106.859L203.054 110.361L205.79 110.256L205.654 106.753Z" fill="#5DEEA0"/>
<path d="M193.309 119.019C193.309 119.019 189.519 117.217 189.58 118.774C189.641 120.33 193.4 121.354 193.4 121.354L193.309 119.019Z" fill="#FFB9B9"/>
<path d="M210.932 139.619H192.955C193.331 137.867 194.044 135.754 194.603 134.231C195.045 133.026 195.388 132.19 195.388 132.19C197.429 129.898 200.392 129.84 203.172 130.406C203.504 130.473 203.834 130.549 204.159 130.633C204.197 130.642 204.235 130.652 204.273 130.662C204.923 130.829 205.554 131.022 206.15 131.215C207.179 131.548 208.107 131.886 208.857 132.115C209.235 132.239 209.622 132.329 210.016 132.385C210.102 132.394 210.188 132.397 210.275 132.395C210.572 132.383 210.778 132.701 210.911 133.257C211.212 134.512 211.143 136.982 210.932 139.619Z" fill="#2F2E41"/>
<path d="M207.386 103.471C207.386 103.471 209.469 106.704 210.282 107.452C211.094 108.2 208.809 109.847 208.809 109.847L204.719 110.395C204.719 110.395 204.77 106.69 204.56 106.308C204.349 105.927 207.386 103.471 207.386 103.471Z" fill="#FFB9B9"/>
<path d="M203.831 107.701C203.831 107.701 204.673 109.227 205.455 109.197C206.237 109.167 210.282 107.452 210.454 106.86C210.627 106.269 211.794 111.096 211.794 111.096L201.898 128.431L199.484 126.771L200.654 116.592L201.614 111.099L203.831 107.701Z" fill="#5DEEA0"/>
<path d="M210.819 123.215C210.411 124.005 210.202 124.883 210.212 125.772C210.214 125.811 210.215 125.85 210.219 125.889C210.312 127.689 210.979 129.772 211.218 131.287C211.391 132.373 211.342 133.166 210.703 133.353C209.155 133.802 210.929 134.124 204.938 136.109C198.946 138.094 197.901 136.38 197.885 135.991C197.87 135.602 198.734 132.646 198.531 132.459C198.328 132.272 195.69 134.907 194.893 134.548C194.096 134.189 194.802 132.213 194.802 132.213C194.802 132.213 196.597 128.051 196.559 127.078C196.522 126.106 199.279 121.517 199.279 121.517L201.155 109.363C201.155 109.363 201.876 107.776 202.846 107.544C203.457 107.417 204.093 107.533 204.62 107.865L202.998 111.435L201.285 117.737L201.572 120.065C201.572 120.065 203.563 115.895 204.871 114.286C206.178 112.677 208.966 108.867 208.966 108.867C208.966 108.867 209.617 106.68 209.126 106.027C208.634 105.372 211.176 105.274 212.259 107.96C212.833 109.384 213.766 111.507 214.35 113.484C214.87 115.235 215.116 116.872 214.6 117.808C213.812 119.237 211.83 121.116 210.819 123.215Z" fill="white"/>
<path opacity="0.1" d="M214.6 117.808C213.812 119.237 211.83 121.116 210.819 123.215C210.555 122.269 210.233 121.289 210.233 121.289C210.233 121.289 208.998 114.711 212.652 113.011C213.257 112.953 213.862 113.121 214.35 113.484C214.87 115.235 215.116 116.872 214.6 117.808Z" fill="black"/>
<path d="M200.097 117.393L197 118.292L192.7 118.458L192.258 122.178L199.325 122.684C199.325 122.684 201.09 117.744 200.097 117.393Z" fill="white"/>
<path d="M205.148 129.899C205.148 129.899 201.005 130.584 201.95 131.825C202.896 133.066 206.567 131.761 206.567 131.761L205.148 129.899Z" fill="#FFB9B9"/>
<path opacity="0.1" d="M210.219 125.889C210.312 127.69 210.979 129.772 211.218 131.287C209.898 132.53 208.643 133.627 208.17 133.646C207.192 133.683 205.621 133.549 205.042 133.766C204.463 133.984 204.124 130.294 204.124 130.294C204.124 130.294 204.469 129.112 206.01 128.467C207.051 128.032 209.044 126.85 210.219 125.889Z" fill="black"/>
<path d="M212.606 111.844C212.606 111.844 215.914 111.326 215.735 116.789C215.557 122.253 216.084 125.74 214.754 126.766C213.423 127.791 209.102 132.44 208.124 132.478C207.147 132.516 205.576 132.381 204.997 132.599C204.418 132.816 204.078 129.126 204.078 129.126C204.078 129.126 204.424 127.944 205.965 127.3C207.506 126.656 211.137 124.372 211.106 123.594C211.076 122.815 210.188 120.121 210.188 120.121C210.188 120.121 208.953 113.544 212.606 111.844Z" fill="white"/>
<path d="M204.469 108.257C206.846 108.257 208.772 106.339 208.772 103.973C208.772 101.607 206.846 99.6895 204.469 99.6895C202.092 99.6895 200.165 101.607 200.165 103.973C200.165 106.339 202.092 108.257 204.469 108.257Z" fill="#FFB9B9"/>
<path d="M201.571 97.8334C201.467 97.9225 201.343 97.9845 201.209 98.0142C201.142 98.0261 201.073 98.0111 201.017 97.9724C200.961 97.9338 200.922 97.8746 200.91 97.8079C200.833 98.0216 200.689 98.2052 200.499 98.332C200.298 98.4363 199.988 98.3489 199.959 98.1251C199.929 98.295 199.854 98.4537 199.74 98.5839C199.681 98.6463 199.6 98.6828 199.513 98.6857C199.427 98.6885 199.344 98.6575 199.28 98.5992C199.368 99.0782 199.314 99.5707 199.342 100.057C199.369 100.543 199.5 101.058 199.869 101.378C200.407 101.844 201.216 101.729 201.923 101.641C202.03 101.618 202.142 101.624 202.245 101.658C202.51 101.771 202.498 102.138 202.502 102.424C202.524 102.928 202.724 103.407 203.067 103.777C203.41 104.147 203.873 104.384 204.375 104.446C204.656 104.49 204.943 104.42 205.172 104.253C205.373 104.083 205.476 103.807 205.706 103.68C206.08 103.472 206.535 103.775 206.809 104.103C207.082 104.431 207.352 104.834 207.777 104.894C208.338 104.974 208.765 104.405 208.975 103.88C209.264 103.146 209.403 102.361 209.382 101.572C209.362 100.784 209.183 100.007 208.857 99.288C207.685 96.7459 203.683 96.3438 201.571 97.8334Z" fill="#2F2E41"/>
</g>
<path d="M82.2217 40L82.2057 32.576L78.5257 38.72H77.5977L73.9177 32.672V40H71.9337V28.8H73.6457L78.0937 36.224L82.4617 28.8H84.1737L84.1897 40H82.2217ZM90.2869 31.36C91.5456 31.36 92.5056 31.664 93.1669 32.272C93.8389 32.8693 94.1749 33.776 94.1749 34.992V40H92.2869V38.96C92.0416 39.3333 91.6896 39.6213 91.2309 39.824C90.7829 40.016 90.2389 40.112 89.5989 40.112C88.9589 40.112 88.3989 40.0053 87.9189 39.792C87.4389 39.568 87.0656 39.264 86.7989 38.88C86.5429 38.4853 86.4149 38.0427 86.4149 37.552C86.4149 36.784 86.6976 36.1707 87.2629 35.712C87.8389 35.2427 88.7403 35.008 89.9669 35.008H92.1749V34.88C92.1749 34.2827 91.9936 33.824 91.6309 33.504C91.2789 33.184 90.7509 33.024 90.0469 33.024C89.5669 33.024 89.0923 33.0987 88.6229 33.248C88.1643 33.3973 87.7749 33.6053 87.4549 33.872L86.6709 32.416C87.1189 32.0747 87.6576 31.8133 88.2869 31.632C88.9163 31.4507 89.5829 31.36 90.2869 31.36ZM90.0149 38.656C90.5163 38.656 90.9589 38.544 91.3429 38.32C91.7376 38.0853 92.0149 37.7547 92.1749 37.328V36.336H90.1109C88.9589 36.336 88.3829 36.7147 88.3829 37.472C88.3829 37.8347 88.5269 38.1227 88.8149 38.336C89.1029 38.5493 89.5029 38.656 90.0149 38.656ZM96.7417 31.456H98.7417V40H96.7417V31.456ZM97.7497 30.048C97.387 30.048 97.083 29.936 96.8377 29.712C96.5924 29.4773 96.4697 29.1893 96.4697 28.848C96.4697 28.5067 96.5924 28.224 96.8377 28C97.083 27.7653 97.387 27.648 97.7497 27.648C98.1124 27.648 98.4164 27.76 98.6617 27.984C98.907 28.1973 99.0297 28.4693 99.0297 28.8C99.0297 29.152 98.907 29.4507 98.6617 29.696C98.427 29.9307 98.123 30.048 97.7497 30.048ZM105.207 40.112C104.343 40.112 103.564 39.9253 102.871 39.552C102.177 39.1787 101.633 38.6613 101.239 38C100.855 37.328 100.663 36.5707 100.663 35.728C100.663 34.8853 100.855 34.1333 101.239 33.472C101.633 32.8107 102.177 32.2933 102.871 31.92C103.564 31.5467 104.343 31.36 105.207 31.36C106.081 31.36 106.865 31.5467 107.559 31.92C108.252 32.2933 108.791 32.8107 109.175 33.472C109.569 34.1333 109.767 34.8853 109.767 35.728C109.767 36.5707 109.569 37.328 109.175 38C108.791 38.6613 108.252 39.1787 107.559 39.552C106.865 39.9253 106.081 40.112 105.207 40.112ZM105.207 38.4C105.943 38.4 106.551 38.1547 107.031 37.664C107.511 37.1733 107.751 36.528 107.751 35.728C107.751 34.928 107.511 34.2827 107.031 33.792C106.551 33.3013 105.943 33.056 105.207 33.056C104.471 33.056 103.863 33.3013 103.383 33.792C102.913 34.2827 102.679 34.928 102.679 35.728C102.679 36.528 102.913 37.1733 103.383 37.664C103.863 38.1547 104.471 38.4 105.207 38.4ZM113.583 32.704C114.159 31.808 115.173 31.36 116.623 31.36V33.264C116.453 33.232 116.298 33.216 116.159 33.216C115.381 33.216 114.773 33.4453 114.335 33.904C113.898 34.352 113.679 35.0027 113.679 35.856V40H111.679V31.456H113.583V32.704ZM126.274 35.776C126.274 35.9147 126.263 36.112 126.242 36.368H119.538C119.655 36.9973 119.959 37.4987 120.45 37.872C120.951 38.2347 121.57 38.416 122.306 38.416C123.244 38.416 124.018 38.1067 124.626 37.488L125.698 38.72C125.314 39.1787 124.828 39.5253 124.242 39.76C123.655 39.9947 122.994 40.112 122.258 40.112C121.319 40.112 120.492 39.9253 119.778 39.552C119.063 39.1787 118.508 38.6613 118.114 38C117.73 37.328 117.538 36.5707 117.538 35.728C117.538 34.896 117.724 34.1493 118.098 33.488C118.482 32.816 119.01 32.2933 119.682 31.92C120.354 31.5467 121.111 31.36 121.954 31.36C122.786 31.36 123.527 31.5467 124.178 31.92C124.839 32.2827 125.351 32.8 125.714 33.472C126.087 34.1333 126.274 34.9013 126.274 35.776ZM121.954 32.96C121.314 32.96 120.77 33.152 120.322 33.536C119.884 33.9093 119.618 34.4107 119.522 35.04H124.37C124.284 34.4213 124.023 33.92 123.586 33.536C123.148 33.152 122.604 32.96 121.954 32.96ZM130.835 40.112C130.141 40.112 129.464 40.0213 128.803 39.84C128.141 39.6587 127.613 39.4293 127.219 39.152L127.987 37.632C128.371 37.888 128.829 38.096 129.363 38.256C129.907 38.4053 130.44 38.48 130.963 38.48C132.157 38.48 132.755 38.1653 132.755 37.536C132.755 37.2373 132.6 37.0293 132.291 36.912C131.992 36.7947 131.507 36.6827 130.835 36.576C130.131 36.4693 129.555 36.3467 129.107 36.208C128.669 36.0693 128.285 35.8293 127.955 35.488C127.635 35.136 127.475 34.6507 127.475 34.032C127.475 33.2213 127.811 32.576 128.483 32.096C129.165 31.6053 130.083 31.36 131.235 31.36C131.821 31.36 132.408 31.4293 132.995 31.568C133.581 31.696 134.061 31.872 134.435 32.096L133.667 33.616C132.941 33.1893 132.125 32.976 131.219 32.976C130.632 32.976 130.184 33.0667 129.875 33.248C129.576 33.4187 129.427 33.648 129.427 33.936C129.427 34.256 129.587 34.4853 129.907 34.624C130.237 34.752 130.744 34.8747 131.427 34.992C132.109 35.0987 132.669 35.2213 133.107 35.36C133.544 35.4987 133.917 35.7333 134.227 36.064C134.547 36.3947 134.707 36.864 134.707 37.472C134.707 38.272 134.36 38.912 133.667 39.392C132.973 39.872 132.029 40.112 130.835 40.112ZM149.219 28.128V40H147.299V38.896C146.968 39.3013 146.558 39.6053 146.067 39.808C145.587 40.0107 145.054 40.112 144.467 40.112C143.646 40.112 142.904 39.9307 142.243 39.568C141.592 39.2053 141.08 38.6933 140.707 38.032C140.334 37.36 140.147 36.592 140.147 35.728C140.147 34.864 140.334 34.1013 140.707 33.44C141.08 32.7787 141.592 32.2667 142.243 31.904C142.904 31.5413 143.646 31.36 144.467 31.36C145.032 31.36 145.55 31.456 146.019 31.648C146.488 31.84 146.888 32.128 147.219 32.512V28.128H149.219ZM144.707 38.4C145.187 38.4 145.619 38.2933 146.003 38.08C146.387 37.856 146.691 37.5413 146.915 37.136C147.139 36.7307 147.251 36.2613 147.251 35.728C147.251 35.1947 147.139 34.7253 146.915 34.32C146.691 33.9147 146.387 33.6053 146.003 33.392C145.619 33.168 145.187 33.056 144.707 33.056C144.227 33.056 143.795 33.168 143.411 33.392C143.027 33.6053 142.723 33.9147 142.499 34.32C142.275 34.7253 142.163 35.1947 142.163 35.728C142.163 36.2613 142.275 36.7307 142.499 37.136C142.723 37.5413 143.027 37.856 143.411 38.08C143.795 38.2933 144.227 38.4 144.707 38.4ZM155.675 40.112C154.811 40.112 154.033 39.9253 153.339 39.552C152.646 39.1787 152.102 38.6613 151.707 38C151.323 37.328 151.131 36.5707 151.131 35.728C151.131 34.8853 151.323 34.1333 151.707 33.472C152.102 32.8107 152.646 32.2933 153.339 31.92C154.033 31.5467 154.811 31.36 155.675 31.36C156.55 31.36 157.334 31.5467 158.027 31.92C158.721 32.2933 159.259 32.8107 159.643 33.472C160.038 34.1333 160.235 34.8853 160.235 35.728C160.235 36.5707 160.038 37.328 159.643 38C159.259 38.6613 158.721 39.1787 158.027 39.552C157.334 39.9253 156.55 40.112 155.675 40.112ZM155.675 38.4C156.411 38.4 157.019 38.1547 157.499 37.664C157.979 37.1733 158.219 36.528 158.219 35.728C158.219 34.928 157.979 34.2827 157.499 33.792C157.019 33.3013 156.411 33.056 155.675 33.056C154.939 33.056 154.331 33.3013 153.851 33.792C153.382 34.2827 153.147 34.928 153.147 35.728C153.147 36.528 153.382 37.1733 153.851 37.664C154.331 38.1547 154.939 38.4 155.675 38.4ZM165.303 31.36C166.561 31.36 167.521 31.664 168.183 32.272C168.855 32.8693 169.191 33.776 169.191 34.992V40H167.303V38.96C167.057 39.3333 166.705 39.6213 166.247 39.824C165.799 40.016 165.255 40.112 164.615 40.112C163.975 40.112 163.415 40.0053 162.935 39.792C162.455 39.568 162.081 39.264 161.815 38.88C161.559 38.4853 161.431 38.0427 161.431 37.552C161.431 36.784 161.713 36.1707 162.279 35.712C162.855 35.2427 163.756 35.008 164.983 35.008H167.191V34.88C167.191 34.2827 167.009 33.824 166.647 33.504C166.295 33.184 165.767 33.024 165.063 33.024C164.583 33.024 164.108 33.0987 163.639 33.248C163.18 33.3973 162.791 33.6053 162.471 33.872L161.687 32.416C162.135 32.0747 162.673 31.8133 163.303 31.632C163.932 31.4507 164.599 31.36 165.303 31.36ZM165.031 38.656C165.532 38.656 165.975 38.544 166.359 38.32C166.753 38.0853 167.031 37.7547 167.191 37.328V36.336H165.127C163.975 36.336 163.399 36.7147 163.399 37.472C163.399 37.8347 163.543 38.1227 163.831 38.336C164.119 38.5493 164.519 38.656 165.031 38.656ZM180.203 28.128V40H178.283V38.896C177.953 39.3013 177.542 39.6053 177.051 39.808C176.571 40.0107 176.038 40.112 175.451 40.112C174.63 40.112 173.889 39.9307 173.227 39.568C172.577 39.2053 172.065 38.6933 171.691 38.032C171.318 37.36 171.131 36.592 171.131 35.728C171.131 34.864 171.318 34.1013 171.691 33.44C172.065 32.7787 172.577 32.2667 173.227 31.904C173.889 31.5413 174.63 31.36 175.451 31.36C176.017 31.36 176.534 31.456 177.003 31.648C177.473 31.84 177.873 32.128 178.203 32.512V28.128H180.203ZM175.691 38.4C176.171 38.4 176.603 38.2933 176.987 38.08C177.371 37.856 177.675 37.5413 177.899 37.136C178.123 36.7307 178.235 36.2613 178.235 35.728C178.235 35.1947 178.123 34.7253 177.899 34.32C177.675 33.9147 177.371 33.6053 176.987 33.392C176.603 33.168 176.171 33.056 175.691 33.056C175.211 33.056 174.779 33.168 174.395 33.392C174.011 33.6053 173.707 33.9147 173.483 34.32C173.259 34.7253 173.147 35.1947 173.147 35.728C173.147 36.2613 173.259 36.7307 173.483 37.136C173.707 37.5413 174.011 37.856 174.395 38.08C174.779 38.2933 175.211 38.4 175.691 38.4ZM186.66 40.112C185.796 40.112 185.017 39.9253 184.324 39.552C183.63 39.1787 183.086 38.6613 182.692 38C182.308 37.328 182.116 36.5707 182.116 35.728C182.116 34.8853 182.308 34.1333 182.692 33.472C183.086 32.8107 183.63 32.2933 184.324 31.92C185.017 31.5467 185.796 31.36 186.66 31.36C187.534 31.36 188.318 31.5467 189.012 31.92C189.705 32.2933 190.244 32.8107 190.628 33.472C191.022 34.1333 191.22 34.8853 191.22 35.728C191.22 36.5707 191.022 37.328 190.628 38C190.244 38.6613 189.705 39.1787 189.012 39.552C188.318 39.9253 187.534 40.112 186.66 40.112ZM186.66 38.4C187.396 38.4 188.004 38.1547 188.484 37.664C188.964 37.1733 189.204 36.528 189.204 35.728C189.204 34.928 188.964 34.2827 188.484 33.792C188.004 33.3013 187.396 33.056 186.66 33.056C185.924 33.056 185.316 33.3013 184.836 33.792C184.366 34.2827 184.132 34.928 184.132 35.728C184.132 36.528 184.366 37.1733 184.836 37.664C185.316 38.1547 185.924 38.4 186.66 38.4ZM195.036 32.704C195.612 31.808 196.626 31.36 198.076 31.36V33.264C197.906 33.232 197.751 33.216 197.612 33.216C196.834 33.216 196.226 33.4453 195.788 33.904C195.351 34.352 195.132 35.0027 195.132 35.856V40H193.132V31.456H195.036V32.704ZM207.727 35.776C207.727 35.9147 207.716 36.112 207.695 36.368H200.991C201.108 36.9973 201.412 37.4987 201.903 37.872C202.404 38.2347 203.023 38.416 203.759 38.416C204.697 38.416 205.471 38.1067 206.079 37.488L207.151 38.72C206.767 39.1787 206.281 39.5253 205.695 39.76C205.108 39.9947 204.447 40.112 203.711 40.112C202.772 40.112 201.945 39.9253 201.231 39.552C200.516 39.1787 199.961 38.6613 199.567 38C199.183 37.328 198.991 36.5707 198.991 35.728C198.991 34.896 199.177 34.1493 199.551 33.488C199.935 32.816 200.463 32.2933 201.135 31.92C201.807 31.5467 202.564 31.36 203.407 31.36C204.239 31.36 204.98 31.5467 205.631 31.92C206.292 32.2827 206.804 32.8 207.167 33.472C207.54 34.1333 207.727 34.9013 207.727 35.776ZM203.407 32.96C202.767 32.96 202.223 33.152 201.775 33.536C201.337 33.9093 201.071 34.4107 200.975 35.04H205.823C205.737 34.4213 205.476 33.92 205.039 33.536C204.601 33.152 204.057 32.96 203.407 32.96ZM212.288 40.112C211.595 40.112 210.917 40.0213 210.256 39.84C209.595 39.6587 209.067 39.4293 208.672 39.152L209.44 37.632C209.824 37.888 210.283 38.096 210.816 38.256C211.36 38.4053 211.893 38.48 212.416 38.48C213.611 38.48 214.208 38.1653 214.208 37.536C214.208 37.2373 214.053 37.0293 213.744 36.912C213.445 36.7947 212.96 36.6827 212.288 36.576C211.584 36.4693 211.008 36.3467 210.56 36.208C210.123 36.0693 209.739 35.8293 209.408 35.488C209.088 35.136 208.928 34.6507 208.928 34.032C208.928 33.2213 209.264 32.576 209.936 32.096C210.619 31.6053 211.536 31.36 212.688 31.36C213.275 31.36 213.861 31.4293 214.448 31.568C215.035 31.696 215.515 31.872 215.888 32.096L215.12 33.616C214.395 33.1893 213.579 32.976 212.672 32.976C212.085 32.976 211.637 33.0667 211.328 33.248C211.029 33.4187 210.88 33.648 210.88 33.936C210.88 34.256 211.04 34.4853 211.36 34.624C211.691 34.752 212.197 34.8747 212.88 34.992C213.563 35.0987 214.123 35.2213 214.56 35.36C214.997 35.4987 215.371 35.7333 215.68 36.064C216 36.3947 216.16 36.864 216.16 37.472C216.16 38.272 215.813 38.912 215.12 39.392C214.427 39.872 213.483 40.112 212.288 40.112Z" fill="white"/>
<defs>
<clipPath id="clip0">
<rect width="179" height="108" fill="white" transform="translate(54 53)"/>
</clipPath>
</defs>
</svg>
